<svg xmlns="http://www.w3.org/2000/svg" width="47.459" height="47.468" viewBox="0 0 47.459 47.468"><path d="M47.787,13.956a17.345,17.345,0,0,0-1.1-5.759,12.16,12.16,0,0,0-6.946-6.945A17.39,17.39,0,0,0,33.98.149C31.439.028,30.632,0,24.187,0S16.936.028,14.4.139a17.35,17.35,0,0,0-5.758,1.1,11.582,11.582,0,0,0-4.21,2.745A11.687,11.687,0,0,0,1.7,8.188,17.391,17.391,0,0,0,.6,13.946C.476,16.487.449,17.294.449,23.739s.028,7.251.139,9.783a17.344,17.344,0,0,0,1.1,5.759,12.158,12.158,0,0,0,6.945,6.945,17.392,17.392,0,0,0,5.759,1.1c2.531.112,3.338.139,9.783.139s7.251-.028,9.783-.139a17.341,17.341,0,0,0,5.758-1.1,12.142,12.142,0,0,0,6.946-6.945,17.4,17.4,0,0,0,1.1-5.759c.111-2.532.139-3.338.139-9.783s-.009-7.251-.121-9.783Zm-4.275,19.38a13.011,13.011,0,0,1-.816,4.4,7.874,7.874,0,0,1-4.507,4.507,13.057,13.057,0,0,1-4.4.816c-2.5.112-3.255.139-9.588.139s-7.094-.028-9.588-.139a13,13,0,0,1-4.4-.816,7.3,7.3,0,0,1-2.726-1.771A7.38,7.38,0,0,1,5.706,37.75a13.059,13.059,0,0,1-.816-4.4c-.112-2.5-.139-3.255-.139-9.588s.028-7.094.139-9.588a13,13,0,0,1,.816-4.4A7.215,7.215,0,0,1,7.487,7.038a7.369,7.369,0,0,1,2.726-1.771,13.066,13.066,0,0,1,4.4-.816c2.5-.111,3.255-.139,9.588-.139s7.094.028,9.588.139a13.011,13.011,0,0,1,4.4.816,7.3,7.3,0,0,1,2.726,1.771A7.378,7.378,0,0,1,42.7,9.765a13.064,13.064,0,0,1,.816,4.4c.111,2.5.139,3.255.139,9.588s-.028,7.075-.139,9.579Zm0,0" transform="translate(-0.449 0)" fill="#fff"/><path d="M137.143,124.5a12.194,12.194,0,1,0,12.194,12.194A12.2,12.2,0,0,0,137.143,124.5Zm0,20.1a7.91,7.91,0,1,1,7.91-7.91,7.911,7.911,0,0,1-7.91,7.91Zm0,0" transform="translate(-113.404 -112.955)" fill="#fff"/><path d="M368.143,91.449A2.847,2.847,0,1,1,365.3,88.6a2.847,2.847,0,0,1,2.847,2.847Zm0,0" transform="translate(-328.882 -80.386)" fill="#fff"/></svg>